<?xml version="1.0" standalone="no"?>
<!DOCTYPE svg PUBLIC "-//W3C//DTD SVG 20010904//EN"
 "http://www.w3.org/TR/2001/REC-SVG-20010904/DTD/svg10.dtd">
<svg version="1.0" xmlns="http://www.w3.org/2000/svg"
 width="3840.000000pt" height="2160.000000pt" viewBox="0 0 3840.000000 2160.000000"
 preserveAspectRatio="xMidYMid meet">

<g transform="translate(0.000000,2160.000000) scale(0.100000,-0.100000)"
fill="#000000" stroke="none">
<path d="M19280 18641 c-116 -22 -293 -75 -368 -111 -231 -110 -433 -317 -552
-565 -165 -346 -183 -760 -44 -1064 13 -30 21 -57 17 -61 -5 -4 -32 -28 -61
-55 l-53 -48 -42 40 c-110 107 -265 125 -522 64 -267 -64 -542 -286 -723 -583
-159 -260 -264 -570 -314 -928 -20 -143 -17 -653 5 -849 14 -125 15 -156 5
-163 -30 -19 -119 -39 -213 -48 -55 -5 -152 -14 -215 -20 -63 -6 -134 -15
-156 -21 l-41 -11 -7 -146 c-18 -382 -48 -700 -92 -977 -31 -191 -41 -363 -25
-421 l11 -41 182 -41 c101 -23 221 -49 267 -57 46 -8 85 -16 87 -18 2 -2 -27
-11 -64 -21 -37 -10 -105 -34 -152 -55 l-85 -37 3 -89 3 -90 -44 49 c-29 34
-46 46 -51 37 -12 -18 -9 -363 4 -486 6 -60 22 -193 36 -295 14 -102 32 -234
40 -295 16 -120 38 -433 32 -461 -2 -13 -15 -17 -59 -19 -119 -3 -168 -80
-200 -312 l-12 -84 48 -49 49 -49 -38 -81 -38 -80 17 -138 c21 -173 36 -227
80 -285 l35 -46 -54 -333 c-96 -587 -146 -950 -146 -1063 0 -33 9 -112 21
-175 31 -171 21 -214 -102 -440 -43 -80 -87 -171 -98 -203 -13 -37 -38 -78
-67 -110 -64 -72 -121 -154 -192 -277 -94 -163 -240 -469 -257 -534 -8 -33
-26 -149 -40 -258 -13 -109 -30 -209 -36 -221 -7 -12 -46 -76 -87 -142 -157
-251 -192 -357 -192 -585 0 -163 11 -218 56 -277 l27 -36 -18 -96 c-16 -90
-107 -457 -263 -1062 -57 -219 -70 -287 -76 -380 -8 -134 5 -265 37 -359 l23
-65 69 -17 c135 -34 236 -43 470 -42 260 2 553 25 566 45 4 7 10 54 14 104 9
113 -6 214 -45 311 -80 200 -91 508 -30 803 50 237 215 631 265 631 33 0 114
51 154 96 54 62 89 137 141 304 56 178 80 238 209 513 127 271 173 385 207
511 28 107 29 134 8 263 -18 116 -14 147 37 276 74 185 106 234 198 306 73 56
129 128 172 219 81 175 77 170 147 219 162 113 185 159 222 435 23 172 34 223
67 297 13 29 60 153 104 275 116 316 196 466 307 582 78 82 99 114 138 214 42
109 60 148 82 173 14 16 20 8 81 -110 135 -261 152 -275 356 -287 58 -4 105
-12 111 -19 13 -13 173 -249 548 -805 257 -381 267 -393 384 -434 85 -30 226
-27 316 8 15 6 152 -191 162 -233 4 -15 -3 -136 -16 -268 l-23 -240 -39 -43
c-46 -50 -95 -148 -103 -206 -4 -23 3 -122 14 -221 11 -99 32 -312 46 -474 23
-261 30 -307 61 -415 57 -197 74 -277 74 -352 l0 -72 55 -47 55 -47 0 -116 c0
-64 7 -193 16 -287 8 -93 15 -242 15 -330 0 -166 0 -168 -51 -295 -38 -94 -67
-200 -95 -350 -15 -80 -40 -210 -56 -290 l-29 -145 41 -37 c89 -81 201 -99
458 -73 208 21 243 17 487 -56 281 -83 260 -81 791 -76 313 3 492 8 540 17 72
12 73 13 80 49 12 58 9 212 -5 262 -13 43 -20 50 -85 87 -110 63 -230 116
-362 161 -186 64 -201 77 -475 396 -263 308 -263 308 -262 844 l1 323 56 118
c49 104 58 131 71 226 16 121 14 160 -22 379 -30 186 -30 224 0 421 36 229 73
525 90 706 20 209 39 626 34 736 -4 83 -6 90 -46 147 -39 57 -42 65 -52 170
-16 157 -13 149 -75 179 -70 35 -85 54 -125 168 -111 315 -353 892 -501 1193
-148 303 -373 630 -662 963 -103 119 -106 126 -157 387 l-33 170 42 83 c47 94
31 91 180 40 101 -33 182 -37 224 -10 53 35 161 236 203 379 22 75 27 117 34
293 5 113 20 309 34 435 44 409 44 622 -3 744 -42 113 -145 207 -263 245 l-56
17 25 92 c13 51 32 132 42 180 10 48 21 91 24 94 4 3 114 -54 247 -126 526
-289 789 -396 1062 -433 81 -12 88 -14 88 -35 0 -26 32 -63 55 -63 22 0 18 18
-10 45 l-24 25 58 0 c119 0 207 45 377 195 54 48 134 112 177 142 71 51 135
120 167 182 32 62 64 183 95 361 19 107 43 225 55 262 l21 67 111 36 c61 19
118 35 126 35 21 0 13 58 -43 285 -54 224 -75 350 -75 460 l0 80 88 67 c150
114 269 249 289 326 4 17 29 35 94 67 l88 45 638 0 c351 1 651 4 667 7 33 7
56 51 56 110 0 59 10 85 29 77 123 -51 236 -61 341 -31 120 34 185 39 540 39
372 0 403 -3 473 -45 33 -20 45 -22 85 -15 26 4 144 11 263 14 l217 7 6 45 c3
25 6 71 6 103 l0 59 -211 0 c-190 0 -216 2 -273 22 l-63 22 -47 -35 -48 -34
-459 -3 -458 -3 2 113 c2 97 -1 118 -17 143 l-19 29 -38 -42 -38 -43 -50 61
-51 61 0 235 0 234 -55 0 -55 0 0 -303 0 -303 -52 0 -53 1 -3 77 -3 78 -1652
2 -1652 3 -3 50 -3 51 -97 24 -97 25 -6 92 c-7 89 -33 193 -49 193 -8 0 -44
-132 -83 -305 l-23 -100 -90 -7 c-62 -4 -130 -19 -224 -48 -74 -23 -164 -48
-200 -56 -63 -13 -210 -19 -210 -9 0 3 -6 68 -14 143 -8 75 -17 173 -21 218
l-6 81 98 28 c164 46 240 91 268 159 20 48 44 174 48 251 9 164 -30 370 -104
562 -38 97 -39 103 -26 136 14 32 13 37 -13 81 -25 44 -37 52 -156 111 -71 35
-187 100 -259 145 -146 92 -255 141 -395 176 -104 27 -274 39 -350 25z m2762
-2944 c10 -26 25 -86 35 -133 l16 -85 -40 -42 c-23 -23 -55 -71 -73 -107 -35
-71 -119 -201 -169 -265 -54 -69 -204 -216 -212 -208 -3 5 -25 49 -47 100 -22
50 -68 139 -101 197 -34 58 -61 115 -61 125 0 27 45 77 94 105 22 13 87 49
144 81 56 31 104 61 107 65 3 4 -2 13 -9 20 -24 19 -29 65 -12 99 9 16 36 43
59 60 45 31 74 36 192 36 l59 0 18 -48z"/>
<path d="M24320 11305 c-8 -2 -49 -9 -90 -15 -247 -40 -512 -175 -694 -353
-240 -236 -352 -497 -386 -902 -6 -73 -10 -670 -10 -1535 0 -1174 3 -1437 15
-1545 47 -422 137 -621 393 -867 164 -157 342 -261 540 -316 l97 -27 2115 0
2115 0 83 23 c410 113 746 426 876 817 55 165 55 162 58 1322 l3 1071 -35 5
c-55 7 -4098 3 -4105 -5 -10 -10 52 -184 100 -280 64 -129 129 -222 225 -321
153 -160 304 -252 495 -304 l100 -27 1010 -2 1010 -2 3 -609 2 -608 -1952 1
-1953 1 -3 1702 -2 1701 2545 0 2546 0 -7 38 c-88 489 -459 872 -976 1009
l-103 28 -2000 1 c-1100 1 -2007 0 -2015 -1z"/>
<path d="M31624 11294 c-45 -7 -126 -28 -180 -45 -490 -156 -815 -532 -905
-1046 -20 -116 -20 -147 -19 -1688 1 -1738 -1 -1678 65 -1882 112 -341 354
-625 664 -778 106 -53 221 -90 326 -105 58 -8 613 -10 2025 -8 l1945 3 100 28
c401 110 747 444 875 844 63 195 60 109 60 1898 0 1794 3 1709 -61 1899 -90
268 -285 522 -524 679 -119 78 -186 111 -308 152 -204 68 -95 65 -2137 64
-1511 -1 -1860 -4 -1926 -15z m3754 -2787 l-3 -1762 -1818 1 c-999 0 -1820 4
-1825 8 -4 4 -9 795 -10 1757 l-4 1748 159 3 c87 2 911 4 1831 5 l1672 2 -2
-1762z"/>
<path d="M1385 11229 c-253 -37 -521 -180 -713 -383 -180 -191 -300 -421 -352
-676 -20 -96 -20 -136 -20 -1703 0 -1775 -3 -1679 66 -1878 67 -195 171 -362
318 -511 156 -157 319 -260 521 -327 245 -81 102 -76 2150 -76 1694 1 1827 2
1915 18 581 108 1037 606 1103 1204 l5 43 -2291 2 -2292 3 -3 1532 -2 1532
2284 3 c1256 2 2288 6 2292 11 12 12 -23 201 -56 298 -71 213 -181 391 -340
550 -202 202 -445 326 -702 359 -102 12 -3794 12 -3883 -1z"/>
<path d="M8515 11229 c-163 -24 -368 -106 -522 -210 -100 -68 -239 -202 -319
-309 -79 -105 -175 -296 -208 -412 -52 -183 -58 -262 -54 -805 l4 -498 26 -97
c70 -257 195 -469 383 -646 221 -209 488 -331 780 -356 33 -3 876 -5 1873 -6
l1812 0 -2 -512 -3 -513 -2427 -3 -2428 -2 0 -29 c0 -75 53 -262 110 -387 49
-108 155 -260 251 -359 204 -211 448 -337 759 -391 100 -18 200 -19 2000 -19
l1895 0 115 23 c275 56 511 182 706 376 147 148 250 312 314 504 59 175 84
503 77 989 -5 358 -10 407 -62 588 -36 128 -131 313 -210 412 -36 45 -108 121
-159 170 -190 177 -386 270 -700 331 -71 14 -297 16 -1923 19 l-1843 4 0 479
0 480 238 0 c2280 1 4532 7 4538 12 10 10 -14 147 -43 248 -112 392 -445 740
-831 869 -174 59 -18 55 -2142 57 -1070 1 -1972 -2 -2005 -7z"/>
<path d="M38031 11130 c-24 -4 -50 -15 -57 -24 -15 -21 -45 -92 -114 -273 -28
-73 -54 -133 -58 -133 -10 0 -96 207 -136 325 l-34 100 -66 3 -67 3 6 -268 c4
-147 8 -274 10 -280 3 -7 14 -13 25 -13 19 0 20 6 20 108 1 112 11 355 15 360
8 9 60 -102 118 -248 78 -198 88 -220 98 -220 16 0 79 132 150 310 84 213 86
213 88 4 1 -179 12 -344 22 -338 5 3 18 34 29 70 18 58 20 93 20 295 0 177 -3
229 -12 228 -7 -1 -33 -5 -57 -9z"/>
<path d="M36960 11106 c0 -18 5 -23 18 -21 9 2 47 6 85 9 l67 5 0 -254 0 -255
30 0 30 0 0 168 c0 92 3 204 6 248 l7 81 76 6 c42 3 87 10 101 15 33 12 -90
22 -277 22 l-143 0 0 -24z"/>
</g>
</svg>
