<?xml version="1.0" standalone="no"?>
<!DOCTYPE svg PUBLIC "-//W3C//DTD SVG 20010904//EN"
 "http://www.w3.org/TR/2001/REC-SVG-20010904/DTD/svg10.dtd">
<svg version="1.0" xmlns="http://www.w3.org/2000/svg"
 width="700.000000pt" height="700.000000pt" viewBox="0 0 700.000000 700.000000"
 preserveAspectRatio="xMidYMid meet">
<metadata>
Created by potrace 1.14, written by Peter Selinger 2001-2017
</metadata>
<g transform="translate(0.000000,700.000000) scale(0.100000,-0.100000)"
fill="#000000" stroke="none">
<path d="M1877 6644 c-1 -1 -56 -4 -122 -8 -66 -3 -131 -8 -145 -10 -14 -3
-50 -7 -80 -10 -30 -4 -89 -13 -130 -21 -41 -8 -92 -17 -114 -20 -21 -3 -42
-7 -46 -10 -4 -3 -25 -7 -46 -11 -135 -21 -499 -145 -659 -224 -167 -83 -475
-276 -475 -299 0 -11 43 -6 220 29 148 29 191 35 341 48 134 12 502 3 529 -13
3 -1 34 -6 69 -9 36 -4 67 -9 70 -11 4 -2 27 -6 51 -10 137 -19 406 -96 585
-167 123 -48 375 -171 470 -229 76 -45 262 -168 292 -192 383 -309 691 -663
849 -976 26 -52 25 -65 -9 -118 -32 -50 -29 -82 17 -177 l36 -77 153 81 c238
124 267 133 422 133 115 0 139 -3 208 -27 185 -63 294 -182 342 -371 18 -72
25 -221 15 -328 -3 -32 -3 -60 0 -62 8 -5 45 -11 115 -20 97 -11 174 -48 242
-113 168 -162 242 -407 173 -572 -13 -30 -29 -62 -35 -70 -19 -23 -35 -79 -28
-96 7 -19 44 -34 82 -34 108 0 274 -154 331 -307 46 -124 23 -237 -84 -413
-154 -253 -216 -382 -262 -539 -24 -83 -33 -203 -19 -271 24 -125 60 -213 129
-319 110 -168 323 -319 506 -360 25 -5 131 -11 235 -12 105 -1 210 -6 235 -11
25 -5 56 -11 70 -13 14 -3 75 -20 135 -39 78 -24 112 -30 117 -22 7 12 159
570 263 965 l67 255 -12 75 c-7 42 -14 85 -16 96 -2 10 -6 37 -9 60 -15 111
-72 369 -117 535 -167 615 -420 1178 -776 1730 -33 51 -203 289 -227 317 -5 7
-32 39 -60 72 -60 71 -96 88 -192 90 -80 2 -196 28 -268 61 -214 98 -451 346
-533 560 -49 128 -61 185 -77 370 -13 148 -18 159 -122 262 -58 59 -69 66 -85
55 -9 -6 -43 -31 -75 -53 l-58 -42 -150 121 c-145 117 -337 249 -460 317 -451
252 -973 406 -1505 446 -78 6 -368 12 -373 8z m4361 -4893 c82 -28 134 -62
200 -130 96 -100 154 -257 146 -397 -6 -114 -48 -226 -111 -294 -13 -14 -23
-28 -23 -31 0 -15 -127 -104 -192 -134 -209 -96 -420 -55 -580 113 -115 121
-143 192 -143 377 0 183 22 237 149 358 72 69 197 135 289 152 85 17 190 11
265 -14z"/>
</g>
</svg>
