<?xml version="1.0" standalone="no"?>
<!DOCTYPE svg PUBLIC "-//W3C//DTD SVG 20010904//EN"
 "http://www.w3.org/TR/2001/REC-SVG-20010904/DTD/svg10.dtd">
<svg version="1.0" xmlns="http://www.w3.org/2000/svg"
 width="256.000000pt" height="256.000000pt" viewBox="0 0 256.000000 256.000000"
 preserveAspectRatio="xMidYMid meet">

<g transform="translate(0.000000,256.000000) scale(0.100000,-0.100000)"
fill="#fff" stroke="none">
<path d="M504 2411 c-105 -19 -202 -48 -293 -88 -62 -28 -196 -112 -189 -119
3 -2 34 2 69 10 273 63 596 -7 856 -186 110 -75 232 -200 303 -309 53 -83 58
-95 45 -109 -19 -21 -19 -34 0 -70 l15 -29 76 39 c63 34 84 40 135 40 134 0
215 -89 207 -228 l-3 -64 38 -4 c57 -5 98 -34 135 -94 39 -65 43 -127 12 -178
-23 -38 -19 -52 14 -52 36 0 87 -41 114 -90 31 -59 25 -104 -23 -179 -57 -88
-95 -174 -102 -228 -13 -113 59 -233 174 -290 50 -24 67 -27 145 -26 65 1 105
-4 145 -18 31 -10 57 -18 59 -17 1 2 29 103 62 226 l59 223 -14 87 c-51 326
-208 686 -411 945 -42 53 -48 57 -87 57 -69 0 -131 28 -196 87 -80 74 -122
161 -127 259 -4 66 -7 75 -37 104 l-34 33 -27 -20 -28 -20 -62 51 c-270 222
-665 321 -1030 257z m1811 -1785 c90 -53 122 -180 67 -267 -63 -99 -197 -129
-280 -62 -61 49 -83 97 -79 170 2 52 8 69 33 100 67 82 177 107 259 59z"/>
</g>
</svg>
